<svg width="295" height="79" viewBox="0 0 295 79" fill="none" xmlns="http://www.w3.org/2000/svg">
<path d="M12.6766 0.025706C13.9506 -0.143048 15.153 0.523076 15.1901 1.90582C15.2576 4.41418 15.2209 6.94516 15.2201 9.45692L15.2081 31.8009L15.2069 38.23C15.2073 39.3088 15.1053 40.5158 15.2681 41.5775C15.346 42.086 15.8265 42.5236 16.2096 42.8316C18.2976 44.5097 29.7381 50.0168 30.2621 51.5534C30.6537 52.7013 30.4179 61.9586 30.4176 63.7198C30.4171 67.0795 30.5743 70.5238 30.3958 73.8747C30.378 74.2085 30.3011 74.5236 30.1516 74.8222C29.9363 75.2537 29.5283 75.6896 29.0571 75.8367C27.522 76.3154 23.0402 73.2049 21.6481 72.3903C20.066 71.4592 18.4466 70.582 16.8664 69.6465C16.03 69.1513 15.2503 68.5365 15.2158 67.4671C15.0716 62.6593 15.2376 57.8312 15.1928 53.0169C15.1699 50.5649 13.8041 50.3 11.9011 49.2059L4.76624 45.115C-0.301186 42.2057 0.00496888 43.3477 0.00376138 37.4487L0.00343308 31.1174L0.00540957 10.9518C0.00562912 10.1832 -0.0830649 7.606 0.449551 7.19735C2.24752 5.81768 4.83441 4.44734 6.83469 3.30416C8.56108 2.31744 10.9676 0.800414 12.6766 0.025706Z" fill="white"/>
<path d="M42.9297 8.83101C46.1142 8.48801 45.54 11.0848 45.5982 13.275C45.6279 14.3767 45.5971 15.5022 45.596 16.6059L45.5883 34.3478L45.584 39.1226C45.5818 39.8619 45.4917 40.7203 45.6103 41.4412C45.6981 41.9768 46.1153 42.4383 46.5159 42.7791C48.7608 44.6855 59.9345 49.8001 60.6019 51.5321C60.9861 52.5315 60.9005 63.6041 60.7567 65.206C60.7304 65.4937 60.67 65.7561 60.5437 66.0174C60.3121 66.5005 59.8862 66.9375 59.3593 67.0813C57.9059 67.4799 53.2757 64.3463 51.8015 63.4998C50.3371 62.6021 47.2701 61.0623 46.169 60.0517C44.6059 58.6171 46.4973 52.7222 45.0472 51.0354C44.4807 50.3763 42.4785 49.323 41.6223 48.8337L35.0267 45.0502C30.0183 42.1734 30.3836 43.2082 30.3808 37.4544L30.3788 30.8148C30.3783 26.5038 30.3622 22.1592 30.4003 17.8474C30.4041 17.4314 30.4991 16.727 30.6151 16.3251C30.7036 16.0182 31.3416 15.5119 31.626 15.3417C33.363 14.3083 35.1244 13.22 36.8976 12.2486C38.8725 11.1672 40.9197 9.78874 42.9297 8.83101Z" fill="white"/>
<path d="M73.6265 17.4968C74.3389 17.4543 75.8198 18.0305 75.8439 18.7915C76.1491 28.3162 75.901 37.9064 75.9636 47.4462C75.9768 47.7952 75.8922 48.2045 75.7396 48.5151C74.373 51.3031 68.8284 47.0312 66.915 45.912C65.5418 45.0747 62.1575 43.3938 61.1827 42.3643C60.5394 41.6858 60.7963 35.2019 60.7689 33.8191C60.7195 31.3391 60.7864 28.8978 60.8007 26.4193C60.8029 26.004 60.939 24.8736 61.298 24.5996C63.0916 23.382 65.4265 22.0542 67.3212 20.9978C68.9546 20.0878 72.0524 18.1086 73.6265 17.4968Z" fill="white"/>
<path d="M110.372 63.5933L98.2389 19.8464H105.181L113.704 53.7246H114.11L122.975 19.8464H129.853L138.718 53.746H139.123L147.625 19.8464H154.589L142.434 63.5933H135.791L126.585 30.8259H126.243L117.036 63.5933H110.372ZM167.395 64.2554C164.163 64.2554 161.379 63.5648 159.043 62.1835C156.722 60.7879 154.928 58.8298 153.66 56.3092C152.407 53.7744 151.781 50.8053 151.781 47.4018C151.781 44.041 152.407 41.079 153.66 38.5157C154.928 35.9524 156.693 33.9516 158.958 32.5134C161.236 31.0751 163.899 30.3559 166.947 30.3559C168.798 30.3559 170.592 30.6621 172.33 31.2744C174.067 31.8868 175.626 32.848 177.008 34.1581C178.389 35.4683 179.478 37.17 180.276 39.2634C181.073 41.3425 181.472 43.8702 181.472 46.8464V49.1107H155.39V44.3259H175.213C175.213 42.6455 174.872 41.1573 174.188 39.8615C173.504 38.5513 172.543 37.5189 171.304 36.7641C170.08 36.0094 168.641 35.632 166.989 35.632C165.195 35.632 163.629 36.0735 162.29 36.9564C160.966 37.8251 159.94 38.9643 159.214 40.3741C158.502 41.7697 158.146 43.2863 158.146 44.924V48.6621C158.146 50.8551 158.531 52.7206 159.3 54.2586C160.083 55.7966 161.172 56.9714 162.568 57.7831C163.963 58.5806 165.594 58.9793 167.459 58.9793C168.67 58.9793 169.773 58.8085 170.77 58.4667C171.767 58.1107 172.629 57.5838 173.355 56.886C174.081 56.1882 174.637 55.3266 175.021 54.3013L181.066 55.3907C180.582 57.1708 179.713 58.7301 178.46 60.0687C177.221 61.3931 175.662 62.4255 173.782 63.166C171.917 63.8923 169.788 64.2554 167.395 64.2554ZM185.462 63.5933V19.8464H191.849V36.102H192.233C192.604 35.4184 193.138 34.6281 193.835 33.7309C194.533 32.8338 195.502 32.0505 196.74 31.3812C197.979 30.6977 199.617 30.3559 201.653 30.3559C204.302 30.3559 206.666 31.0252 208.745 32.3638C210.824 33.7024 212.455 35.632 213.637 38.1526C214.833 40.6732 215.431 43.7064 215.431 47.2523C215.431 50.7982 214.84 53.8385 213.658 56.3733C212.476 58.8939 210.853 60.8377 208.788 62.2048C206.723 63.5577 204.366 64.2341 201.717 64.2341C199.724 64.2341 198.093 63.8994 196.826 63.2301C195.573 62.5608 194.59 61.7776 193.878 60.8804C193.166 59.9833 192.618 59.1858 192.233 58.488H191.699V63.5933H185.462ZM191.721 47.1882C191.721 49.4952 192.055 51.5173 192.725 53.2547C193.394 54.992 194.362 56.352 195.63 57.3346C196.897 58.3029 198.449 58.7871 200.286 58.7871C202.195 58.7871 203.789 58.2816 205.071 57.2705C206.353 56.2452 207.321 54.8567 207.976 53.1051C208.645 51.3535 208.98 49.3812 208.98 47.1882C208.98 45.0236 208.653 43.0798 207.998 41.3567C207.357 39.6336 206.388 38.2736 205.092 37.2768C203.811 36.28 202.209 35.7816 200.286 35.7816C198.435 35.7816 196.869 36.2586 195.587 37.2127C194.32 38.1668 193.358 39.4983 192.703 41.2072C192.048 42.916 191.721 44.9097 191.721 47.1882ZM225.381 19.8464V63.5933H218.994V19.8464H225.381ZM239.912 64.3195C237.833 64.3195 235.953 63.935 234.273 63.166C232.593 62.3828 231.261 61.2507 230.279 59.7697C229.31 58.2887 228.826 56.473 228.826 54.3227C228.826 52.4714 229.182 50.9477 229.894 49.7515C230.606 48.5553 231.567 47.6083 232.778 46.9105C233.988 46.2127 235.341 45.6858 236.836 45.3298C238.332 44.9738 239.855 44.7032 241.407 44.5181C243.373 44.2903 244.968 44.1051 246.192 43.9627C247.417 43.8061 248.307 43.5569 248.862 43.2151C249.418 42.8733 249.695 42.3179 249.695 41.549V41.3994C249.695 39.5339 249.169 38.0885 248.115 37.0632C247.075 36.0379 245.523 35.5252 243.458 35.5252C241.308 35.5252 239.613 36.0023 238.374 36.9564C237.15 37.8963 236.302 38.9429 235.832 40.0964L229.83 38.7293C230.542 36.7357 231.582 35.1265 232.949 33.9018C234.33 32.6629 235.918 31.7657 237.712 31.2103C239.506 30.6407 241.393 30.3559 243.373 30.3559C244.683 30.3559 246.071 30.5126 247.538 30.8259C249.019 31.1249 250.4 31.6803 251.682 32.492C252.978 33.3037 254.039 34.4643 254.865 35.9738C255.691 37.4691 256.104 39.4129 256.104 41.8053V63.5933H249.866V59.1075H249.61C249.197 59.9335 248.578 60.7452 247.752 61.5426C246.926 62.3401 245.865 63.0023 244.569 63.5292C243.273 64.0561 241.721 64.3195 239.912 64.3195ZM241.301 59.1929C243.067 59.1929 244.576 58.8441 245.829 58.1463C247.097 57.4485 248.058 56.5371 248.713 55.4121C249.382 54.2728 249.717 53.0553 249.717 51.7594V47.53C249.489 47.7578 249.048 47.9714 248.392 48.1708C247.752 48.3559 247.018 48.5197 246.192 48.6621C245.366 48.7903 244.562 48.9113 243.779 49.0252C242.995 49.1249 242.34 49.2104 241.813 49.2816C240.574 49.4382 239.442 49.7016 238.417 50.0719C237.406 50.4422 236.594 50.9762 235.982 51.674C235.384 52.3575 235.085 53.2689 235.085 54.4081C235.085 55.9888 235.669 57.185 236.836 57.9967C238.004 58.7942 239.492 59.1929 241.301 59.1929ZM261.514 63.5933V19.8464H267.901V36.102H268.286C268.656 35.4184 269.19 34.6281 269.888 33.7309C270.585 32.8338 271.554 32.0505 272.793 31.3812C274.032 30.6977 275.669 30.3559 277.706 30.3559C280.354 30.3559 282.718 31.0252 284.797 32.3638C286.876 33.7024 288.507 35.632 289.689 38.1526C290.885 40.6732 291.483 43.7064 291.483 47.2523C291.483 50.7982 290.892 53.8385 289.71 56.3733C288.528 58.8939 286.905 60.8377 284.84 62.2048C282.775 63.5577 280.418 64.2341 277.77 64.2341C275.776 64.2341 274.145 63.8994 272.878 63.2301C271.625 62.5608 270.642 61.7776 269.93 60.8804C269.218 59.9833 268.67 59.1858 268.286 58.488H267.751V63.5933H261.514ZM267.773 47.1882C267.773 49.4952 268.108 51.5173 268.777 53.2547C269.446 54.992 270.414 56.352 271.682 57.3346C272.949 58.3029 274.501 58.7871 276.339 58.7871C278.247 58.7871 279.842 58.2816 281.123 57.2705C282.405 56.2452 283.373 54.8567 284.028 53.1051C284.698 51.3535 285.032 49.3812 285.032 47.1882C285.032 45.0236 284.705 43.0798 284.05 41.3567C283.409 39.6336 282.441 38.2736 281.145 37.2768C279.863 36.28 278.261 35.7816 276.339 35.7816C274.487 35.7816 272.921 36.2586 271.639 37.2127C270.372 38.1668 269.411 39.4983 268.755 41.2072C268.1 42.916 267.773 44.9097 267.773 47.1882Z" fill="white"/>
</svg>
