<svg width="194" height="45" viewBox="0 0 194 45" fill="none" xmlns="http://www.w3.org/2000/svg">
<path d="M12.1328 43.7471L-8.95972e-05 0.000234514H6.94216L15.4651 33.8784H15.871L24.7357 0.000234514H31.6138L40.4785 33.8998H40.8844L49.386 0.000234514H56.3496L44.1953 43.7471H37.5521L28.3456 10.9797H28.0039L18.7974 43.7471H12.1328ZM69.1562 44.4093C65.9236 44.4093 63.1396 43.7186 60.8042 42.3373C58.483 40.9417 56.6887 38.9836 55.4213 36.4631C54.1681 33.9282 53.5415 30.9591 53.5415 27.5556C53.5415 24.1949 54.1681 21.2328 55.4213 18.6695C56.6887 16.1062 58.4545 14.1055 60.7187 12.6672C62.9972 11.2289 65.6602 10.5097 68.7076 10.5097C70.5589 10.5097 72.3532 10.8159 74.0906 11.4282C75.8279 12.0406 77.3872 13.0018 78.7686 14.3119C80.1499 15.6221 81.2393 17.3238 82.0368 19.4172C82.8342 21.4963 83.233 24.024 83.233 27.0002V29.2645H57.1515V24.4797H76.9743C76.9743 22.7993 76.6325 21.3112 75.9489 20.0153C75.2654 18.7051 74.3042 17.6727 73.0652 16.918C71.8406 16.1632 70.4023 15.7858 68.7504 15.7858C66.9561 15.7858 65.3896 16.2273 64.051 17.1102C62.7266 17.9789 61.7013 19.1181 60.9751 20.5279C60.263 21.9235 59.907 23.4401 59.907 25.0778V28.8159C59.907 31.0089 60.2915 32.8744 61.0605 34.4124C61.8437 35.9504 62.9331 37.1252 64.3287 37.9369C65.7243 38.7344 67.3548 39.1331 69.2203 39.1331C70.4307 39.1331 71.5344 38.9623 72.5312 38.6205C73.5281 38.2645 74.3896 37.7376 75.1159 37.0398C75.8421 36.342 76.3975 35.4805 76.782 34.4551L82.8271 35.5445C82.3429 37.3246 81.4743 38.8839 80.2211 40.2225C78.9822 41.5469 77.4228 42.5793 75.5431 43.3199C73.6776 44.0461 71.5486 44.4093 69.1562 44.4093ZM87.2229 43.7471V0.000234514H93.6098V16.2558H93.9943C94.3645 15.5722 94.8986 14.7819 95.5964 13.8847C96.2941 12.9876 97.2625 12.2043 98.5014 11.535C99.7403 10.8515 101.378 10.5097 103.414 10.5097C106.063 10.5097 108.427 11.179 110.506 12.5176C112.585 13.8562 114.216 15.7858 115.398 18.3064C116.594 20.827 117.192 23.8602 117.192 27.4061C117.192 30.952 116.601 33.9923 115.419 36.5271C114.237 39.0477 112.614 40.9915 110.549 42.3586C108.484 43.7115 106.127 44.3879 103.478 44.3879C101.485 44.3879 99.8543 44.0532 98.5869 43.3839C97.3337 42.7146 96.3511 41.9314 95.6391 41.0343C94.927 40.1371 94.3788 39.3396 93.9943 38.6418H93.4603V43.7471H87.2229ZM93.4816 27.342C93.4816 29.649 93.8163 31.6711 94.4856 33.4085C95.1549 35.1458 96.1233 36.5058 97.3907 37.4884C98.6581 38.4567 100.21 38.9409 102.047 38.9409C103.956 38.9409 105.55 38.4354 106.832 37.4243C108.114 36.399 109.082 35.0105 109.737 33.2589C110.406 31.5074 110.741 29.535 110.741 27.342C110.741 25.1774 110.414 23.2336 109.759 21.5105C109.118 19.7874 108.149 18.4274 106.853 17.4306C105.572 16.4338 103.97 15.9354 102.047 15.9354C100.196 15.9354 98.6296 16.4124 97.3479 17.3665C96.0805 18.3206 95.1193 19.6521 94.4642 21.361C93.8092 23.0699 93.4816 25.0635 93.4816 27.342ZM127.142 0.000234514V43.7471H120.755V0.000234514H127.142ZM141.673 44.4733C139.594 44.4733 137.714 44.0888 136.034 43.3199C134.354 42.5366 133.022 41.4045 132.04 39.9235C131.071 38.4425 130.587 36.6268 130.587 34.4765C130.587 32.6252 130.943 31.1015 131.655 29.9053C132.367 28.7091 133.328 27.7621 134.539 27.0643C135.749 26.3665 137.102 25.8396 138.597 25.4836C140.093 25.1276 141.616 24.857 143.168 24.6719C145.134 24.4441 146.729 24.2589 147.953 24.1165C149.178 23.9599 150.068 23.7107 150.623 23.3689C151.179 23.0271 151.456 22.4718 151.456 21.7028V21.5532C151.456 19.6877 150.93 18.2423 149.876 17.217C148.836 16.1917 147.284 15.679 145.219 15.679C143.069 15.679 141.374 16.1561 140.135 17.1102C138.911 18.0501 138.063 19.0968 137.593 20.2502L131.591 18.8831C132.303 16.8895 133.343 15.2803 134.71 14.0556C136.091 12.8167 137.679 11.9195 139.473 11.3642C141.267 10.7945 143.154 10.5097 145.134 10.5097C146.444 10.5097 147.832 10.6664 149.299 10.9797C150.78 11.2787 152.161 11.8341 153.443 12.6458C154.739 13.4575 155.8 14.6181 156.626 16.1276C157.452 17.6229 157.865 19.5667 157.865 21.9591V43.7471H151.627V39.2613H151.371C150.958 40.0873 150.339 40.899 149.513 41.6964C148.687 42.4939 147.626 43.1561 146.33 43.683C145.034 44.2099 143.482 44.4733 141.673 44.4733ZM143.062 39.3468C144.827 39.3468 146.337 38.9979 147.59 38.3001C148.858 37.6023 149.819 36.6909 150.474 35.5659C151.143 34.4267 151.478 33.2091 151.478 31.9132V27.6838C151.25 27.9116 150.809 28.1252 150.153 28.3246C149.513 28.5097 148.779 28.6735 147.953 28.8159C147.127 28.9441 146.323 29.0651 145.54 29.179C144.756 29.2787 144.101 29.3642 143.574 29.4354C142.335 29.592 141.203 29.8555 140.178 30.2257C139.167 30.596 138.355 31.13 137.743 31.8278C137.145 32.5113 136.846 33.4227 136.846 34.5619C136.846 36.1426 137.43 37.3388 138.597 38.1506C139.765 38.948 141.253 39.3468 143.062 39.3468ZM163.275 43.7471V0.000234514H169.662V16.2558H170.046C170.417 15.5722 170.951 14.7819 171.649 13.8847C172.346 12.9876 173.315 12.2043 174.554 11.535C175.793 10.8515 177.43 10.5097 179.467 10.5097C182.115 10.5097 184.479 11.179 186.558 12.5176C188.637 13.8562 190.268 15.7858 191.45 18.3064C192.646 20.827 193.244 23.8602 193.244 27.4061C193.244 30.952 192.653 33.9923 191.471 36.5271C190.289 39.0477 188.666 40.9915 186.601 42.3586C184.536 43.7115 182.179 44.3879 179.531 44.3879C177.537 44.3879 175.906 44.0532 174.639 43.3839C173.386 42.7146 172.403 41.9314 171.691 41.0343C170.979 40.1371 170.431 39.3396 170.046 38.6418H169.512V43.7471H163.275ZM169.534 27.342C169.534 29.649 169.868 31.6711 170.538 33.4085C171.207 35.1458 172.175 36.5058 173.443 37.4884C174.71 38.4567 176.262 38.9409 178.1 38.9409C180.008 38.9409 181.603 38.4354 182.884 37.4243C184.166 36.399 185.134 35.0105 185.789 33.2589C186.459 31.5074 186.793 29.535 186.793 27.342C186.793 25.1774 186.466 23.2336 185.811 21.5105C185.17 19.7874 184.202 18.4274 182.906 17.4306C181.624 16.4338 180.022 15.9354 178.1 15.9354C176.248 15.9354 174.682 16.4124 173.4 17.3665C172.133 18.3206 171.171 19.6521 170.516 21.361C169.861 23.0699 169.534 25.0635 169.534 27.342Z" fill="white"/>
</svg>
