<svg width="32" height="32" viewBox="0 0 32 32" fill="none" xmlns="http://www.w3.org/2000/svg">
<g clip-path="url(#clip0_5_81)">
<rect width="32" height="32" rx="8" fill="black"/>
<path d="M8.69346 5.00745C9.06226 4.95853 9.41033 5.15164 9.42107 5.55251C9.44061 6.2797 9.42997 7.01345 9.42975 7.74162L9.42593 16.0831C9.42603 16.3959 9.39651 16.7458 9.44363 17.0536C9.4662 17.201 9.60528 17.3279 9.71618 17.4172C10.3206 17.9037 13.6323 19.5002 13.784 19.9457C13.8974 20.2785 13.8291 22.9622 13.829 23.4728C13.8289 24.4468 13.8744 25.4453 13.8227 26.4168C13.8176 26.5135 13.7953 26.6049 13.752 26.6915C13.6897 26.8165 13.5716 26.9429 13.4352 26.9856C12.9908 27.1243 11.6935 26.2226 11.2905 25.9864C10.8325 25.7165 10.3637 25.4622 9.9063 25.191C9.66419 25.0474 9.43849 24.8692 9.42851 24.5592C9.38675 23.1654 9.4348 21.7657 9.42184 20.3699C9.41523 19.6591 9.01987 19.5823 8.46899 19.2651L6.40363 18.0791C4.93674 17.2357 5.02536 17.5668 5.02501 15.8566L5.02549 8.17499C5.02556 7.95218 4.99988 7.20503 5.15406 7.08656C5.67452 6.68658 6.42336 6.28931 7.00239 5.9579C7.50214 5.67184 8.19877 5.23205 8.69346 5.00745Z" fill="white"/>
<path d="M17.451 7.56023C18.3728 7.4608 18.2066 8.21361 18.2235 8.84859C18.232 9.16797 18.2231 9.49426 18.2228 9.81421L18.2193 16.342C18.2187 16.5563 18.1926 16.8051 18.2269 17.0141C18.2524 17.1694 18.3731 17.3032 18.4891 17.402C19.1389 17.9547 22.3734 19.4375 22.5666 19.9396C22.6778 20.2293 22.6531 23.4393 22.6114 23.9037C22.6038 23.9871 22.5863 24.0632 22.5498 24.139C22.4827 24.279 22.3595 24.4057 22.2069 24.4474C21.7862 24.5629 20.4459 23.6545 20.0191 23.4091C19.5952 23.1488 18.7074 22.7024 18.3887 22.4095C17.9362 21.9935 18.4837 20.2846 18.0639 19.7956C17.9 19.6045 17.3204 19.2991 17.0725 19.1573L15.1633 18.0604C13.7135 17.2264 13.8192 17.5264 13.8184 15.8584L13.8178 13.9335C13.8177 12.6837 13.813 11.4242 13.8241 10.1741C13.8251 10.0535 13.8527 9.84932 13.8862 9.73283C13.9119 9.64386 14.0965 9.49706 14.1789 9.44772C14.6817 9.14814 15.1915 8.83264 15.7049 8.55101C16.2765 8.23751 16.8691 7.83789 17.451 7.56023Z" fill="white"/>
<path d="M26.3369 10.0724C26.5431 10.0601 26.9718 10.2272 26.9788 10.4478C27.0671 13.209 26.9953 15.9893 27.0134 18.7549C27.0172 18.8561 26.9928 18.9748 26.9486 19.0648C26.553 19.8731 24.948 18.6347 24.3941 18.3102C23.9966 18.0674 23.0169 17.5801 22.7347 17.2817C22.5485 17.085 22.6229 15.2053 22.615 14.8044C22.6007 14.0854 22.62 13.3776 22.6242 12.6591C22.6248 12.5387 22.6642 12.211 22.7681 12.1316C23.2873 11.7786 23.9632 11.3936 24.5117 11.0874C24.9845 10.8236 25.8812 10.2498 26.3369 10.0724Z" fill="white"/>
</g>
<defs>
<clipPath id="clip0_5_81">
<rect width="32" height="32" rx="8" fill="white"/>
</clipPath>
</defs>
</svg>
